<?xml version="1.0" encoding="UTF-8"?>
<!DOCTYPE svg PUBLIC "-//W3C//DTD SVG 1.1//EN" "http://www.w3.org/Graphics/SVG/1.1/DTD/svg11.dtd">
<svg xmlns="http://www.w3.org/2000/svg" version="1.1" width="1979px" height="1979px" style="shape-rendering:geometricPrecision; text-rendering:geometricPrecision; image-rendering:optimizeQuality; fill-rule:evenodd; clip-rule:evenodd" xmlns:xlink="http://www.w3.org/1999/xlink">
<g><path style="opacity:0.98" fill="#000000" d="M 728.5,83.5 C 737.841,82.2826 746.508,84.1159 754.5,89C 786.503,119.334 811.003,154.834 828,195.5C 842.987,238.627 839.654,280.294 818,320.5C 809.117,335.379 799.45,349.713 789,363.5C 769.245,385.917 750.245,408.917 732,432.5C 720.515,447.807 712.515,464.807 708,483.5C 704.686,503.953 707.353,523.62 716,542.5C 728.693,567.903 744.36,591.236 763,612.5C 771.616,632.904 766.116,648.07 746.5,658C 732.799,661.965 721.133,658.799 711.5,648.5C 683.804,618.255 663.304,583.588 650,544.5C 637.656,500.268 642.989,458.268 666,418.5C 673.885,405.284 682.552,392.618 692,380.5C 713.423,355.747 734.09,330.414 754,304.5C 764.245,289.67 770.912,273.336 774,255.5C 775.143,238.735 772.143,222.735 765,207.5C 751.24,180.655 733.573,156.655 712,135.5C 698.415,111.908 703.915,94.5743 728.5,83.5 Z"/></g>
<g><path style="opacity:0.98" fill="#000000" d="M 888.5,90.5 C 896.25,90.9166 903.25,93.4166 909.5,98C 936.696,124.86 958.863,155.36 976,189.5C 997.363,238.351 995.029,286.017 969,332.5C 961.725,344.107 954.058,355.44 946,366.5C 924.244,391.586 903.244,417.252 883,443.5C 872.47,458.374 865.137,474.707 861,492.5C 858.163,513.812 861.496,534.145 871,553.5C 883.264,577.419 898.264,599.419 916,619.5C 924.317,636.927 920.817,651.427 905.5,663C 892.534,669.579 880.2,668.579 868.5,660C 839.518,629.561 818.018,594.394 804,554.5C 790.635,508.36 796.301,464.694 821,423.5C 827.753,412.994 834.753,402.66 842,392.5C 861.667,368.833 881.333,345.167 901,321.5C 912.502,306.497 920.835,289.83 926,271.5C 929.651,252.417 927.318,234.084 919,216.5C 904.912,188.996 886.912,164.33 865,142.5C 856.39,130.237 855.723,117.57 863,104.5C 869.545,95.9827 878.045,91.316 888.5,90.5 Z"/></g>
<g><path style="opacity:0.979" fill="#000000" d="M 1056.5,90.5 C 1065.18,90.669 1072.84,93.5024 1079.5,99C 1104.02,123.554 1124.52,151.054 1141,181.5C 1165.98,230.707 1165.65,279.707 1140,328.5C 1132.08,342.016 1123.41,355.016 1114,367.5C 1092.24,392.586 1071.24,418.252 1051,444.5C 1041.02,458.796 1034.02,474.462 1030,491.5C 1026.87,511.612 1029.54,530.945 1038,549.5C 1043.32,561.479 1049.65,572.813 1057,583.5C 1066.28,596.451 1075.95,609.118 1086,621.5C 1093.75,643.825 1086.59,658.991 1064.5,667C 1055.6,668.154 1047.27,666.487 1039.5,662C 1011.34,632.867 989.841,599.367 975,561.5C 959.194,514.564 963.527,469.564 988,426.5C 994.941,415.228 1002.27,404.228 1010,393.5C 1033.42,366.079 1056.09,338.079 1078,309.5C 1085.56,297.369 1091.23,284.369 1095,270.5C 1098.37,249.416 1095.04,229.416 1085,210.5C 1071.13,184.95 1053.79,161.95 1033,141.5C 1022.8,124.178 1025.3,109.011 1040.5,96C 1045.59,93.028 1050.92,91.1947 1056.5,90.5 Z"/></g>
<g><path style="opacity:0.993" fill="#000000" d="M 244.5,694.5 C 658.5,694.333 1072.5,694.5 1486.5,695C 1508.09,697.376 1522.26,708.876 1529,729.5C 1530.12,743.623 1530.62,757.789 1530.5,772C 1530.09,793.504 1529.93,815.004 1530,836.5C 1565.56,799.314 1608.06,773.147 1657.5,758C 1749.61,734.718 1826.44,758.885 1888,830.5C 1921.76,875.081 1941.43,925.414 1947,981.5C 1956.29,1091.4 1927.29,1189.73 1860,1276.5C 1828.89,1315.29 1791.06,1345.46 1746.5,1367C 1686.73,1394.81 1626.06,1397.14 1564.5,1374C 1515.05,1351.72 1477.72,1316.55 1452.5,1268.5C 1451.83,1267.17 1451.17,1267.17 1450.5,1268.5C 1424.85,1328.54 1392.52,1384.38 1353.5,1436C 1443.19,1436.02 1532.86,1436.69 1622.5,1438C 1645.27,1444.61 1657.6,1459.78 1659.5,1483.5C 1659.27,1494.68 1655.77,1504.68 1649,1513.5C 1619.57,1542.59 1591.24,1572.59 1564,1603.5C 1537.12,1633.07 1507.29,1658.9 1474.5,1681C 1438.98,1702.62 1401.32,1719.62 1361.5,1732C 1299.52,1750.06 1236.52,1763.4 1172.5,1772C 969.167,1772.67 765.833,1772.67 562.5,1772C 496.05,1764.98 430.717,1752.31 366.5,1734C 305.363,1716.28 251.697,1685.95 205.5,1643C 173.047,1609.54 141.88,1575.04 112,1539.5C 104.667,1532.17 97.3333,1524.83 90,1517.5C 74.4813,1498.93 72.4813,1478.93 84,1457.5C 91.2455,1447.12 101.079,1440.62 113.5,1438C 200.81,1436.69 288.143,1436.02 375.5,1436C 308.924,1342.39 262.757,1239.22 237,1126.5C 214.472,1024.41 202.472,921.078 201,816.5C 200.333,788.167 200.333,759.833 201,731.5C 207.469,709.518 221.969,697.185 244.5,694.5 Z M 1713.5,842.5 C 1763.72,842.853 1801.56,864.52 1827,907.5C 1848.97,948.737 1858.31,992.737 1855,1039.5C 1848.89,1122.21 1816.06,1192.04 1756.5,1249C 1731.6,1271.62 1702.6,1286.62 1669.5,1294C 1619.03,1301.67 1578.53,1285.17 1548,1244.5C 1522.49,1205.82 1509.99,1163.15 1510.5,1116.5C 1512.63,1037.3 1539.46,967.962 1591,908.5C 1616.66,879.913 1647.83,859.747 1684.5,848C 1694.19,845.5 1703.85,843.666 1713.5,842.5 Z"/></g>
<g><path style="opacity:1" fill="#64381b" d="M 1436.5,788.5 C 1055.83,788.5 675.167,788.5 294.5,788.5C 294.5,795.5 294.5,802.5 294.5,809.5C 293.508,802.352 293.175,795.019 293.5,787.5C 674.667,787.167 1055.67,787.5 1436.5,788.5 Z"/></g>
<g><path style="opacity:1" fill="#c77036" d="M 1436.5,788.5 C 1437.02,885.277 1428.85,981.277 1412,1076.5C 1385.42,1214.16 1325.26,1334.33 1231.5,1437C 986.167,1437.67 740.833,1437.67 495.5,1437C 410.049,1338.93 353.549,1225.76 326,1097.5C 305.691,1002.61 295.191,906.612 294.5,809.5C 294.5,802.5 294.5,795.5 294.5,788.5C 675.167,788.5 1055.83,788.5 1436.5,788.5 Z"/></g>
<g><path style="opacity:1" fill="#c77036" d="M 228.5,1531.5 C 653.333,1530.33 1078.33,1530.17 1503.5,1531C 1476.71,1562.14 1446.05,1588.47 1411.5,1610C 1369.3,1631.74 1324.96,1647.74 1278.5,1658C 1240.36,1666.03 1202.03,1673.03 1163.5,1679C 965.5,1679.67 767.5,1679.67 569.5,1679C 525.433,1674.16 481.766,1666.82 438.5,1657C 397.403,1648.19 358.403,1633.86 321.5,1614C 295.388,1598.24 271.888,1579.07 251,1556.5C 244.005,1547.67 236.505,1539.34 228.5,1531.5 Z"/></g>
</svg>
